<svg xmlns="http://www.w3.org/2000/svg" id="Layer_1" enable-background="new 0 0 64 64" viewBox="0 0 64 64"><path fill="#87d4f2" d="M21.65 24.47V60.8c0 1.77-1.43 3.2-3.2 3.2h-.01c-1.76 0-3.19-1.43-3.19-3.19v-16.8c0-1.07-.87-1.93-1.93-1.93l0 0c-1.07 0-1.93.87-1.93 1.93v16.8c0 1.76-1.43 3.19-3.19 3.19H8.17c-1.76 0-3.19-1.43-3.19-3.19V24.47M20.08 7.76c0 3.73-3.03 6.76-6.76 6.76s-6.76-3.03-6.76-6.76C6.56 4.03 9.58 1 13.32 1S20.08 4.03 20.08 7.76z"/><path fill="#87d4f2" d="M4.98,39.33H4.15c-1.8,0-3.27-1.46-3.27-3.27V20.97c0-2.97,2.4-5.38,5.38-5.38h2.57c1.32,0.73,2.86,1.15,4.49,1.15c1.62,0,3.16-0.42,4.49-1.15h2.58c2.97,0,5.38,2.41,5.38,5.38v15.09c0,1.81-1.47,3.27-3.27,3.27h-0.84"/><rect width="33.22" height="64" x="29.91" fill="#efefef"/><g><path fill="#e3e2e1" d="M46.03,6.52H35.28c-0.55,0-1,0.45-1,1c0,0.55,0.45,1,1,1h10.76c0.55,0,1-0.45,1-1C47.03,6.97,46.59,6.52,46.03,6.52z"/><path fill="#57bb6e" d="M52.1,10.7c0.2,0.2,0.45,0.29,0.71,0.29c0.26,0,0.51-0.1,0.71-0.29l4.95-4.95c0.39-0.39,0.39-1.02,0-1.41c-0.39-0.39-1.02-0.39-1.41,0l-4.24,4.24l-1.26-1.26c-0.39-0.39-1.02-0.39-1.41,0c-0.39,0.39-0.39,1.02,0,1.41L52.1,10.7z"/><path fill="#e3e2e1" d="M46.03,18.76H35.28c-0.55,0-1,0.45-1,1s0.45,1,1,1h10.76c0.55,0,1-0.45,1-1S46.59,18.76,46.03,18.76z"/><path fill="#57bb6e" d="M57.05,16.58l-4.24,4.24l-1.26-1.26c-0.39-0.39-1.02-0.39-1.41,0c-0.39,0.39-0.39,1.02,0,1.41l1.97,1.97c0.19,0.19,0.44,0.29,0.71,0.29c0.27,0,0.52-0.11,0.71-0.29l4.95-4.95c0.39-0.39,0.39-1.02,0-1.41C58.07,16.19,57.44,16.19,57.05,16.58z"/><path fill="#e3e2e1" d="M46.03,31H35.28c-0.55,0-1,0.45-1,1c0,0.55,0.45,1,1,1h10.76c0.55,0,1-0.45,1-1C47.03,31.45,46.59,31,46.03,31z"/><path fill="#e82327" d="M51.11,35.18c0.2,0.2,0.45,0.29,0.71,0.29c0.26,0,0.51-0.1,0.71-0.29l1.77-1.77l1.77,1.77c0.2,0.2,0.45,0.29,0.71,0.29c0.26,0,0.51-0.1,0.71-0.29c0.39-0.39,0.39-1.02,0-1.41L55.71,32l1.77-1.77c0.39-0.39,0.39-1.02,0-1.41c-0.39-0.39-1.02-0.39-1.41,0l-1.77,1.77l-1.77-1.77c-0.39-0.39-1.02-0.39-1.41,0c-0.39,0.39-0.39,1.02,0,1.41L52.88,32l-1.77,1.77C50.72,34.16,50.72,34.79,51.11,35.18z"/><path fill="#e3e2e1" d="M46.03,43.24H35.28c-0.55,0-1,0.45-1,1s0.45,1,1,1h10.76c0.55,0,1-0.45,1-1S46.59,43.24,46.03,43.24z"/><path fill="#57bb6e" d="M57.05,41.06l-4.24,4.24l-1.26-1.26c-0.39-0.39-1.02-0.39-1.41,0c-0.39,0.39-0.39,1.02,0,1.41l1.97,1.97c0.2,0.2,0.45,0.29,0.71,0.29c0.26,0,0.51-0.1,0.71-0.29l4.95-4.95c0.39-0.39,0.39-1.02,0-1.41C58.07,40.67,57.44,40.67,57.05,41.06z"/><path fill="#e3e2e1" d="M46.03,55.48H35.28c-0.55,0-1,0.45-1,1c0,0.55,0.45,1,1,1h10.76c0.55,0,1-0.45,1-1C47.03,55.93,46.59,55.48,46.03,55.48z"/><path fill="#e82327" d="M57.48,53.3c-0.39-0.39-1.02-0.39-1.41,0l-1.77,1.77l-1.77-1.77c-0.39-0.39-1.02-0.39-1.41,0c-0.39,0.39-0.39,1.02,0,1.41l1.77,1.77l-1.77,1.77c-0.39,0.39-0.39,1.02,0,1.41c0.2,0.2,0.45,0.29,0.71,0.29c0.26,0,0.51-0.1,0.71-0.29l1.77-1.77l1.77,1.77c0.2,0.2,0.45,0.29,0.71,0.29c0.26,0,0.51-0.1,0.71-0.29c0.39-0.39,0.39-1.02,0-1.41l-1.77-1.77l1.77-1.77C57.87,54.32,57.87,53.69,57.48,53.3z"/></g></svg>